<?xml version="1.0" encoding="UTF-8"?>
<!-- Generator: visioncortex VTracer 0.6.3 -->
<svg version="1.1" xmlns="http://www.w3.org/2000/svg" width="1280" height="1259">
<path d="M0 0 C422.4 0 844.8 0 1280 0 C1280 415.47 1280 830.94 1280 1259 C857.6 1259 435.2 1259 0 1259 C0 843.53 0 428.06 0 0 Z " fill="#FBFDFD" transform="translate(0,0)"/>
<path d="M0 0 C0.83 -0 1.67 -0.01 2.53 -0.01 C5.34 -0.02 8.15 -0.02 10.97 -0.02 C12.98 -0.03 14.99 -0.03 17 -0.04 C22.47 -0.05 27.94 -0.06 33.42 -0.06 C36.84 -0.06 40.25 -0.07 43.67 -0.07 C54.36 -0.08 65.05 -0.09 75.73 -0.1 C88.08 -0.1 100.43 -0.12 112.77 -0.15 C122.31 -0.17 131.85 -0.18 141.38 -0.18 C147.08 -0.18 152.78 -0.19 158.48 -0.21 C163.84 -0.22 169.2 -0.23 174.56 -0.22 C176.53 -0.22 178.5 -0.22 180.47 -0.23 C183.15 -0.24 185.84 -0.24 188.53 -0.23 C189.31 -0.24 190.08 -0.24 190.89 -0.25 C195.67 -0.21 198.96 0.58 203.02 3.14 C205 5.68 205 5.68 206.77 8.77 C207.27 9.62 207.27 9.62 207.78 10.49 C208.87 12.37 209.94 14.25 211.02 16.14 C212.55 18.79 214.1 21.44 215.64 24.08 C216.05 24.78 216.46 25.49 216.89 26.21 C222.11 35.1 227.72 43.75 233.28 52.43 C235.94 56.59 238.57 60.77 241.2 64.95 C245.38 71.58 249.61 78.16 253.87 84.73 C257.3 90.01 260.67 95.32 264.02 100.64 C269.61 109.52 275.3 118.34 281.02 127.14 C286.94 136.26 292.82 145.4 298.64 154.58 C305.34 165.14 312.18 175.6 319.04 186.06 C323.63 193.08 328.19 200.11 332.74 207.16 C335 210.66 337.26 214.15 339.52 217.64 C342.24 221.85 344.97 226.07 347.7 230.28 C358.6 247.15 369.56 263.99 380.56 280.79 C380.92 281.35 381.29 281.91 381.66 282.48 C382.03 283.04 382.39 283.6 382.77 284.17 C385.17 287.85 387.57 291.53 389.97 295.21 C402.42 314.33 415.04 333.34 427.78 352.27 C428.58 353.49 429.37 354.71 430.14 355.94 C432.3 359.41 432.3 359.41 435.92 361.21 C439.78 361.12 441.34 360.14 444.52 357.95 C453.13 352.27 462.2 347.48 471.29 342.61 C473.77 341.28 476.24 339.93 478.71 338.57 C521.49 315.3 568.76 299.45 616.02 288.14 C617.09 287.88 618.17 287.62 619.28 287.35 C626.84 285.54 634.42 283.81 642.02 282.14 C642.99 281.93 643.96 281.71 644.96 281.49 C675.95 274.75 707.52 270.69 739.02 267.14 C739.29 250.11 738.45 233.25 737.27 216.27 C737.13 214.3 737.13 214.3 737 212.29 C735.46 189.86 733.61 167.48 731.02 145.14 C730.94 144.46 730.86 143.78 730.78 143.08 C726.62 88.15 726.62 88.15 701.02 42.14 C696.37 39.69 692 39.86 686.88 39.89 C685.97 39.88 685.06 39.88 684.12 39.87 C682.15 39.87 680.18 39.86 678.2 39.87 C675.08 39.87 671.96 39.85 668.83 39.84 C659.96 39.79 651.08 39.77 642.21 39.76 C636.77 39.75 631.34 39.73 625.91 39.69 C623.84 39.68 621.77 39.68 619.7 39.69 C616.8 39.69 613.91 39.68 611.02 39.65 C610.16 39.66 609.31 39.67 608.42 39.68 C604.6 39.63 602.65 39.6 599.49 37.3 C597.45 34.31 597.5 32.17 597.49 28.58 C597.48 27.31 597.48 26.04 597.47 24.72 C597.48 24.06 597.49 23.4 597.5 22.72 C597.52 20.71 597.5 18.7 597.47 16.69 C597.48 14.78 597.48 14.78 597.49 12.83 C597.49 11.67 597.5 10.51 597.5 9.31 C598.12 5.52 599.36 3.86 602.02 1.14 C604.44 -0.07 605.96 0.01 608.67 0.01 C609.66 0 610.64 -0 611.66 -0.01 C612.75 -0.01 613.84 -0.01 614.97 -0.01 C616.7 -0.01 616.7 -0.01 618.46 -0.02 C621.68 -0.03 624.89 -0.03 628.1 -0.03 C631.56 -0.04 635.02 -0.05 638.48 -0.06 C646.85 -0.08 655.21 -0.09 663.57 -0.1 C667.51 -0.1 671.44 -0.1 675.38 -0.11 C688.46 -0.13 701.54 -0.14 714.62 -0.15 C718.01 -0.15 721.41 -0.15 724.8 -0.15 C725.65 -0.16 726.49 -0.16 727.36 -0.16 C741.04 -0.16 754.71 -0.19 768.39 -0.22 C782.42 -0.26 796.46 -0.27 810.49 -0.28 C818.37 -0.28 826.26 -0.29 834.14 -0.31 C840.85 -0.33 847.56 -0.34 854.27 -0.33 C857.7 -0.33 861.13 -0.33 864.55 -0.35 C868.26 -0.37 871.97 -0.36 875.69 -0.35 C876.77 -0.36 877.86 -0.37 878.97 -0.38 C883.47 -0.34 886.24 -0.31 890.19 1.97 C892.79 5.05 892.62 7.18 892.58 11.17 C892.57 11.84 892.57 12.52 892.57 13.21 C892.56 14.63 892.54 16.05 892.5 17.47 C892.45 19.63 892.44 21.8 892.44 23.96 C892.33 34.91 892.33 34.91 890.02 39.14 C888.28 39.15 888.28 39.15 886.5 39.15 C875.56 39.19 864.61 39.25 853.66 39.32 C848.04 39.36 842.41 39.4 836.78 39.41 C831.35 39.43 825.91 39.46 820.48 39.51 C818.41 39.52 816.34 39.53 814.27 39.53 C811.37 39.53 808.46 39.56 805.55 39.59 C804.7 39.59 803.85 39.58 802.98 39.58 C797.37 39.68 792.37 40.36 788.02 44.14 C783.36 51.09 783.42 59.05 783.41 67.13 C783.39 68.4 783.38 69.66 783.36 70.97 C783.32 74.44 783.3 77.91 783.28 81.38 C783.27 84.34 783.24 87.29 783.21 90.25 C783.11 99.74 783.06 109.24 783.03 118.73 C783.02 121.11 783.01 123.49 783 125.88 C782.92 146.99 782.91 168.1 782.95 189.21 C782.96 197.31 782.96 205.41 782.97 213.51 C782.98 230.05 782.99 246.6 783.02 263.14 C785.24 263.15 787.47 263.15 789.69 263.15 C790.93 263.16 792.17 263.16 793.45 263.16 C798.1 263.13 802.74 262.9 807.38 262.65 C825.29 261.82 843.22 261.94 861.14 261.95 C862.07 261.95 862.99 261.95 863.95 261.95 C894.65 261.96 925.26 262.41 955.93 263.99 C959.08 264.14 962.23 264.29 965.37 264.43 C1110.41 271.07 1110.41 271.07 1125.71 286.89 C1129.94 294.17 1126.49 306.15 1125.22 314.03 C1125.04 315.24 1124.85 316.45 1124.66 317.69 C1124.16 320.93 1123.65 324.16 1123.14 327.39 C1122.19 333.45 1121.27 339.51 1120.34 345.57 C1120.24 346.24 1120.14 346.91 1120.03 347.59 C1117.91 361.5 1116.13 375.45 1114.6 389.43 C1114.51 390.2 1114.43 390.96 1114.34 391.74 C1114.11 393.74 1113.89 395.74 1113.67 397.74 C1112.98 401.31 1111.79 403.98 1110.02 407.14 C1108.76 407.02 1107.5 406.89 1106.2 406.77 C1105.5 406.7 1104.79 406.63 1104.06 406.55 C1102.02 406.14 1102.02 406.14 1099.02 404.14 C1098.1 401.93 1098.1 401.93 1097.27 399.2 C1090.91 380.96 1076.9 371.5 1061.02 362.14 C1059.58 361.28 1058.14 360.43 1056.7 359.57 C1053.84 357.87 1050.97 356.19 1048.08 354.52 C1045.56 353.06 1043.07 351.56 1040.61 350.02 C1005.59 328.65 959.28 323.1 919.2 318.33 C918.37 318.23 917.54 318.13 916.68 318.03 C894.89 315.47 873.07 313.92 851.15 313.14 C847.88 313.02 844.6 312.89 841.33 312.75 C827.58 312.23 813.86 312.09 800.1 312.12 C798.34 312.12 796.57 312.12 794.81 312.12 C790.55 312.13 786.28 312.13 782.02 312.14 C782.01 313.18 782 314.22 781.99 315.29 C781.74 349.85 781.49 384.4 781.22 418.95 C781.21 420.37 781.2 421.78 781.19 423.19 C780.62 497.41 780 571.63 779.25 645.84 C779.24 646.66 779.24 647.47 779.23 648.31 C778.87 683.47 778.51 718.62 778.14 753.77 C778.04 763.47 777.94 773.17 777.84 782.87 C777.82 784.34 777.81 785.8 777.79 787.27 C777.78 788 777.78 788.72 777.77 789.47 C777.72 793.82 777.68 798.17 777.63 802.52 C777.3 834.08 776.99 865.63 776.76 897.18 C776.74 899.36 776.72 901.53 776.71 903.7 C776.57 922.27 776.57 922.27 776.44 940.85 C776.13 988.16 776.13 988.16 775.68 1006.34 C775.65 1007.51 775.63 1008.67 775.61 1009.88 C775.05 1028.11 775.05 1028.11 770.02 1033.14 C763.03 1033.14 758.99 1030.95 754.02 1026.14 C752.86 1024.64 751.76 1023.11 750.69 1021.55 C750.08 1020.66 749.48 1019.78 748.85 1018.87 C745.99 1014.61 743.15 1010.35 740.34 1006.07 C739.73 1005.14 739.12 1004.21 738.49 1003.26 C736.56 1000.32 734.63 997.39 732.7 994.45 C730.17 990.59 727.63 986.74 725.09 982.88 C724.48 981.95 723.87 981.02 723.24 980.06 C718.19 972.4 713.12 964.76 708.02 957.14 C707.06 955.7 706.1 954.26 705.13 952.82 C704.56 951.95 704.56 951.95 703.97 951.08 C700.63 946.07 700.63 946.07 699.43 944.26 C698.34 942.63 697.25 941 696.17 939.37 C693.03 934.66 689.89 929.95 686.76 925.23 C676.32 909.53 665.77 893.9 655.22 878.27 C649.84 870.3 644.47 862.33 639.15 854.33 C633.95 846.54 628.69 838.78 623.45 831.02 C622.16 829.1 620.87 827.19 619.58 825.27 C613.58 816.38 607.58 807.49 601.56 798.61 C601.07 797.87 600.57 797.14 600.06 796.38 C598.13 793.54 596.21 790.69 594.28 787.85 C587.62 778.01 581.01 768.15 574.43 758.25 C570.14 751.81 565.8 745.41 561.42 739.03 C555.96 731.07 550.55 723.08 545.14 715.08 C544.65 714.35 544.16 713.62 543.65 712.88 C541.12 709.13 538.59 705.38 536.05 701.63 C531.69 695.17 527.31 688.71 522.94 682.25 C520.56 678.72 518.17 675.19 515.78 671.66 C515.07 670.61 515.07 670.61 514.35 669.54 C511.43 665.23 508.52 660.92 505.6 656.61 C490.23 633.87 474.83 611.15 459.39 588.45 C458.7 587.43 458.01 586.41 457.29 585.36 C453.78 580.2 450.26 575.03 446.74 569.87 C439.71 559.56 432.73 549.22 425.83 538.83 C418.74 528.14 411.43 517.61 404.02 507.14 C356.04 588.8 344.42 687.47 368.53 789.9 C370.95 799.15 373.62 808.2 377.02 817.14 C377.35 818.05 377.69 818.95 378.04 819.88 C386.45 842.32 396.48 864.3 410.02 884.14 C410.5 884.85 410.98 885.56 411.48 886.29 C417.34 894.83 423.37 903.19 430.02 911.14 C430.79 912.1 431.57 913.06 432.36 914.05 C438.99 922.12 446.22 929.56 453.58 936.95 C454.3 937.68 454.3 937.68 455.04 938.43 C461.69 945.13 468.64 951.26 476.02 957.14 C477.04 958 478.07 958.87 479.08 959.75 C491.28 970.21 504.53 979.45 518.02 988.14 C519.02 988.79 519.02 988.79 520.03 989.45 C548.15 1007.63 577.27 1023.25 609.02 1034.14 C610.12 1034.52 610.12 1034.52 611.24 1034.9 C615.79 1036.45 620.39 1037.84 625.02 1039.14 C626.25 1039.49 626.25 1039.49 627.51 1039.85 C664.71 1050.26 703.46 1055.34 742.02 1057.14 C743.3 1057.2 743.3 1057.2 744.6 1057.27 C761.84 1058.08 779.07 1058.33 796.32 1058.33 C799.12 1058.33 801.92 1058.33 804.71 1058.35 C827.45 1058.45 850.14 1057.89 872.64 1054.33 C873.75 1054.16 874.85 1053.99 875.99 1053.81 C886.5 1052.15 896.92 1050.09 907.31 1047.75 C909.01 1047.37 910.71 1046.99 912.42 1046.62 C954.25 1037.59 996.94 1020.7 1032.02 996.14 C1033.02 995.44 1033.02 995.44 1034.05 994.72 C1044.49 987.34 1053.95 979.14 1063.02 970.14 C1063.55 969.61 1064.09 969.09 1064.64 968.54 C1083.02 950.29 1096.57 926.89 1100.43 901.13 C1101.13 898.76 1102.16 897.73 1104.02 896.14 C1105.83 896.7 1105.83 896.7 1108.02 898.14 C1109.78 901.84 1111.19 905.59 1112.53 909.47 C1120.17 931.41 1132.36 951.24 1145.04 970.6 C1147.41 974.34 1147.79 976.69 1147.02 981.14 C1144.18 984.7 1140.62 987.4 1137.02 990.14 C1136.36 990.64 1135.7 991.15 1135.02 991.67 C1125.07 999.18 1114.85 1005.98 1104.02 1012.14 C1103.36 1012.52 1102.7 1012.9 1102.02 1013.3 C1079.32 1026.46 1055.48 1036.76 1031.02 1046.14 C1030.4 1046.38 1029.79 1046.61 1029.16 1046.86 C1017.75 1051.26 1006.21 1055.17 994.58 1058.95 C993.18 1059.41 993.18 1059.41 991.75 1059.87 C965.17 1068.5 938.46 1075.79 911.02 1081.14 C909.92 1081.36 908.82 1081.57 907.68 1081.8 C876.06 1087.93 844.13 1091.74 812.02 1094.14 C811.17 1094.2 810.33 1094.27 809.46 1094.33 C777.26 1096.73 745.24 1097.59 712.96 1097.46 C708.42 1097.45 703.88 1097.45 699.34 1097.46 C674.16 1097.48 649.13 1097.06 624.02 1095.14 C621.95 1094.99 619.89 1094.85 617.82 1094.7 C612.49 1094.31 607.16 1093.87 601.83 1093.39 C600.44 1093.27 600.44 1093.27 599.02 1093.14 C562.02 1089.8 525.39 1083.78 490.02 1072.14 C489.21 1071.88 488.41 1071.62 487.58 1071.35 C450.84 1059.26 416.79 1041.07 385.02 1019.14 C384.29 1018.64 383.57 1018.14 382.82 1017.63 C355.84 999.02 329.41 977.97 309.02 952.14 C307.52 950.35 306.02 948.56 304.52 946.77 C285.06 922.87 270.79 894.88 260.02 866.14 C259.56 864.93 259.1 863.73 258.63 862.48 C246.86 830.62 240.41 797.58 236.77 763.89 C236.68 763.13 236.6 762.36 236.52 761.58 C231.75 717.2 232.74 672.71 243.02 629.14 C243.24 628.2 243.45 627.26 243.68 626.29 C251.16 594.69 262.46 563.07 277.82 534.37 C279.32 531.58 280.79 528.78 282.26 525.97 C288.4 514.37 294.64 502.9 301.84 491.93 C303.04 490.1 304.22 488.27 305.4 486.44 C317.61 467.59 332.11 447.17 349.14 432.39 C351.3 430.3 351.3 430.3 350.99 427.56 C349.64 422.8 347.11 419.28 344.31 415.24 C343.73 414.38 343.14 413.51 342.54 412.63 C340.63 409.81 338.7 407.01 336.77 404.2 C335.44 402.26 334.11 400.31 332.79 398.37 C330.13 394.46 327.46 390.55 324.78 386.65 C321.47 381.8 318.17 376.94 314.88 372.07 C314.42 371.39 313.96 370.71 313.48 370.01 C312.59 368.69 311.7 367.37 310.81 366.05 C300.67 351.05 290.44 336.1 280.17 321.18 C277.77 317.7 275.39 314.22 273.01 310.73 C266.33 300.95 259.6 291.2 252.82 281.48 C248.99 275.99 245.18 270.48 241.39 264.95 C235.59 256.49 229.7 248.1 223.82 239.7 C220.88 235.52 217.95 231.33 215.02 227.14 C213.85 225.48 212.69 223.81 211.53 222.15 C209.16 218.78 206.81 215.41 204.45 212.03 C198.46 203.47 192.47 194.92 186.43 186.39 C183.86 182.75 181.29 179.1 178.74 175.45 C178.2 174.67 177.66 173.9 177.11 173.1 C176.08 171.63 175.05 170.15 174.02 168.67 C171.6 165.21 169.27 161.88 166.02 159.14 C163.39 158.73 163.39 158.73 161.02 160.14 C155.42 169.73 156.66 182.52 156.22 193.34 C156.15 195.13 156.07 196.91 156 198.7 C155.75 204.74 155.51 210.78 155.27 216.83 C155.22 217.9 155.18 218.98 155.14 220.09 C151.6 309.36 148.89 398.65 145.07 549.8 C144.87 557.89 144.67 565.97 144.47 574.06 C143.13 627.73 141.89 681.41 141.33 735.1 C141.31 736.56 141.31 736.56 141.3 738.06 C140.8 785.5 140.9 832.84 145.02 880.14 C145.13 881.53 145.25 882.91 145.37 884.29 C147.17 904.92 149.77 925.66 156.52 945.33 C156.79 946.12 157.06 946.92 157.34 947.74 C160.15 955.37 163.27 960.77 170.77 964.33 C174.55 965.7 178.15 965.68 182.14 965.62 C183.01 965.63 183.89 965.63 184.79 965.63 C186.67 965.64 188.56 965.64 190.44 965.63 C193.42 965.61 196.4 965.62 199.38 965.63 C205.7 965.66 212.01 965.65 218.33 965.64 C225.67 965.63 233.01 965.63 240.35 965.66 C243.29 965.67 246.22 965.65 249.16 965.64 C250.95 965.64 252.75 965.65 254.54 965.66 C255.36 965.65 256.18 965.64 257.02 965.62 C262.51 965.68 262.51 965.68 265.02 967.95 C266.48 971.16 266.43 974.23 266.38 977.68 C266.38 978.4 266.38 979.12 266.38 979.87 C266.38 981.39 266.37 982.91 266.35 984.43 C266.33 986.76 266.33 989.1 266.34 991.43 C266.33 992.91 266.33 994.39 266.32 995.87 C266.32 996.57 266.32 997.26 266.32 997.99 C266.25 1002.91 266.25 1002.91 264.02 1005.14 C262.11 1005.39 262.11 1005.39 259.72 1005.39 C258.36 1005.4 258.36 1005.4 256.97 1005.41 C255.46 1005.4 255.46 1005.4 253.93 1005.39 C252.87 1005.4 251.8 1005.4 250.71 1005.4 C247.13 1005.41 243.55 1005.41 239.97 1005.4 C237.41 1005.4 234.86 1005.41 232.3 1005.41 C226.06 1005.42 219.82 1005.42 213.58 1005.41 C208.52 1005.41 203.45 1005.41 198.38 1005.41 C197.66 1005.41 196.94 1005.41 196.19 1005.41 C194.73 1005.41 193.27 1005.41 191.8 1005.41 C178.07 1005.42 164.33 1005.41 150.6 1005.4 C138.8 1005.39 127.01 1005.39 115.22 1005.4 C101.53 1005.41 87.85 1005.42 74.17 1005.41 C72.71 1005.41 71.25 1005.41 69.79 1005.41 C69.07 1005.41 68.36 1005.41 67.62 1005.41 C62.55 1005.41 57.49 1005.41 52.42 1005.41 C45.61 1005.42 38.8 1005.41 31.98 1005.4 C29.48 1005.4 26.97 1005.4 24.47 1005.41 C21.06 1005.41 17.65 1005.4 14.24 1005.39 C13.23 1005.4 12.23 1005.4 11.2 1005.41 C10.29 1005.4 9.38 1005.4 8.44 1005.39 C7.65 1005.39 6.87 1005.39 6.05 1005.39 C4.02 1005.14 4.02 1005.14 1.02 1003.14 C0.64 1000.13 0.64 1000.13 0.65 996.3 C0.65 995.63 0.65 994.95 0.65 994.26 C0.65 992.83 0.66 991.4 0.68 989.96 C0.7 987.78 0.7 985.6 0.7 983.41 C0.74 971.24 0.74 971.24 3.02 968.14 C6.78 965.51 10.89 965.86 15.3 965.89 C16.14 965.88 16.97 965.88 17.83 965.87 C19.63 965.87 21.44 965.86 23.24 965.87 C26.1 965.87 28.96 965.85 31.82 965.84 C39.94 965.79 48.07 965.77 56.19 965.76 C61.16 965.75 66.13 965.73 71.11 965.69 C73 965.68 74.9 965.68 76.79 965.69 C79.44 965.69 82.08 965.68 84.73 965.65 C85.52 965.66 86.3 965.67 87.11 965.68 C90.46 965.63 92.53 965.52 95.22 963.43 C97.36 960.71 97.52 959.48 97.52 956.06 C97.53 955.04 97.54 954.01 97.56 952.95 C97.55 951.82 97.54 950.7 97.53 949.54 C97.54 948.34 97.55 947.15 97.55 945.92 C97.57 943.31 97.57 940.7 97.56 938.08 C97.55 933.89 97.57 929.69 97.59 925.49 C97.61 919.48 97.63 913.46 97.63 907.45 C97.64 897.95 97.68 888.46 97.72 878.97 C97.73 877.78 97.73 877.78 97.73 876.58 C97.75 872.61 97.77 868.65 97.79 864.68 C97.81 860.72 97.83 856.75 97.85 852.79 C97.96 828.3 98.24 803.81 98.83 779.33 C98.85 778.49 98.87 777.65 98.89 776.79 C99.2 763.74 99.55 750.69 99.92 737.63 C100.02 733.86 100.13 730.1 100.23 726.33 C101.2 691.55 102.19 656.78 103.21 622.01 C103.68 605.93 104.14 589.85 104.58 573.77 C104.61 572.7 104.61 572.7 104.64 571.61 C104.73 568.22 104.82 564.84 104.91 561.45 C105.92 524.29 107.08 487.14 108.22 450 C109.28 415.32 110.34 380.65 111.3 345.98 C111.37 343.31 111.44 340.65 111.52 337.98 C111.54 337.32 111.55 336.65 111.57 335.97 C112.21 312.92 112.9 289.88 113.58 266.83 C113.63 265.18 113.63 265.18 113.68 263.5 C113.87 257.12 114.05 250.73 114.24 244.35 C114.3 242.31 114.36 240.27 114.42 238.23 C114.7 228.94 114.97 219.65 115.25 210.36 C115.34 207.2 115.44 204.04 115.53 200.89 C115.57 199.46 115.62 198.04 115.66 196.62 C117 151.88 117.37 98.36 87.02 62.14 C86.39 61.32 85.77 60.49 85.13 59.64 C75.07 47.72 58.75 41.98 43.67 40.36 C38.74 39.95 33.81 39.94 28.87 39.89 C26.54 39.86 24.22 39.83 21.89 39.79 C18.25 39.75 14.61 39.7 10.97 39.66 C7.43 39.62 3.9 39.57 0.37 39.52 C-0.72 39.51 -1.82 39.5 -2.95 39.49 C-3.96 39.48 -4.97 39.46 -6.01 39.44 C-7.35 39.43 -7.35 39.43 -8.71 39.41 C-10.98 39.14 -10.98 39.14 -13.98 37.14 C-14.39 34.04 -14.39 34.04 -14.42 30.09 C-14.42 29.39 -14.43 28.69 -14.43 27.97 C-14.44 26.49 -14.44 25.02 -14.43 23.54 C-14.42 21.28 -14.45 19.03 -14.48 16.77 C-14.48 15.33 -14.48 13.9 -14.48 12.46 C-14.48 11.15 -14.48 9.85 -14.48 8.5 C-13.91 4.62 -13.05 3.49 -9.98 1.14 C-6.83 -0.43 -3.46 -0 0 0 Z " fill="#132D0A" transform="translate(63.98272705078125,83.85955810546875)"/>
<path d="M0 0 C2.41 2.41 2.25 2.94 2.26 6.22 C2.27 7.12 2.28 8.01 2.28 8.93 C2.28 10.41 2.28 10.41 2.28 11.92 C2.28 12.97 2.29 14.01 2.3 15.09 C2.31 18.63 2.32 22.17 2.32 25.7 C2.33 28.24 2.34 30.78 2.35 33.32 C2.37 39.55 2.39 45.79 2.4 52.02 C2.41 59.4 2.44 66.78 2.47 74.15 C2.51 88.4 2.55 102.64 2.58 116.88 C2.61 129.21 2.64 141.53 2.68 153.86 C2.69 155.5 2.69 157.14 2.69 158.78 C2.7 161.24 2.71 163.7 2.72 166.16 C2.83 206.07 2.92 245.98 3 285.89 C3 287.96 3 290.03 3.01 292.1 C3.06 322.69 3.11 353.29 3.12 383.89 C3.12 389.37 3.13 394.84 3.13 400.32 C3.14 409.63 3.14 418.93 3.13 428.24 C3.13 431.22 3.13 434.2 3.14 437.18 C3.16 462.13 3.16 462.13 2.62 474.32 C2.57 475.47 2.57 475.47 2.52 476.64 C1.95 487.51 1.95 487.51 0 492 C-2.08 493.26 -2.08 493.26 -4 494 C-8.7 491.21 -11.68 488.24 -14.75 483.69 C-15.18 483.07 -15.6 482.46 -16.04 481.82 C-17.38 479.89 -18.69 477.95 -20 476 C-20.4 475.4 -20.8 474.8 -21.22 474.19 C-23.27 471.14 -25.3 468.08 -27.33 465.01 C-30.2 460.69 -33.13 456.4 -36.06 452.12 C-42.6 442.59 -49.11 433.03 -55.61 423.46 C-58.5 419.2 -61.4 414.95 -64.3 410.69 C-71.32 400.39 -78.3 390.07 -85.19 379.69 C-89.91 372.58 -94.7 365.53 -99.62 358.56 C-106.07 349.44 -112.27 340.15 -118.45 330.85 C-124.22 322.16 -130 313.49 -135.84 304.86 C-136.43 303.99 -137.02 303.13 -137.62 302.23 C-138.82 300.45 -140.03 298.67 -141.23 296.9 C-152.37 280.43 -163.38 263.88 -174.3 247.26 C-183.55 233.17 -192.93 219.15 -202.38 205.19 C-210.29 193.48 -218.19 181.77 -225.87 169.91 C-230.63 162.54 -235.5 155.23 -240.38 147.94 C-245.69 139.99 -250.98 132.03 -256.09 123.95 C-257.48 121.81 -258.89 119.7 -260.34 117.61 C-260.73 117.05 -261.11 116.5 -261.5 115.93 C-262.55 114.42 -263.61 112.92 -264.66 111.43 C-265.33 110.23 -265.33 110.23 -266 109 C-264.43 104.29 -260.76 102.11 -257 99 C-256.45 98.54 -255.91 98.09 -255.35 97.62 C-233.82 79.63 -210.8 64.11 -186 51 C-185.18 50.56 -184.35 50.13 -183.51 49.68 C-133.98 23.61 -79.75 9.41 -24.5 2.12 C-23.26 1.96 -23.26 1.96 -22 1.79 C-19.63 1.48 -17.27 1.18 -14.91 0.88 C-14.21 0.79 -13.51 0.7 -12.8 0.61 C-8.51 0.08 -4.32 -0.25 0 0 Z " fill="#FBFDFD" transform="translate(803,398)"/>
</svg>
